<svg width="50" height="50" viewBox="0 0 50 50" fill="none" xmlns="http://www.w3.org/2000/svg">
<path d="M0 25C0 11.1929 11.1929 0 25 0V0C38.8071 0 50 11.1929 50 25V25C50 38.8071 38.8071 50 25 50V50C11.1929 50 0 38.8071 0 25V25Z" fill="#262121"/>
<path d="M23.8125 22H21.875C21.7604 21.4427 21.5599 20.9531 21.2734 20.5312C20.9922 20.1094 20.6484 19.7552 20.2422 19.4688C19.8411 19.1771 19.3958 18.9583 18.9063 18.8125C18.4167 18.6667 17.9063 18.5937 17.375 18.5937C16.4063 18.5937 15.5286 18.8385 14.7422 19.3281C13.9609 19.8177 13.3385 20.5391 12.875 21.4922C12.4167 22.4453 12.1875 23.6146 12.1875 25C12.1875 26.3854 12.4167 27.5547 12.875 28.5078C13.3385 29.4609 13.9609 30.1823 14.7422 30.6719C15.5286 31.1615 16.4063 31.4062 17.375 31.4062C17.9063 31.4062 18.4167 31.3333 18.9063 31.1875C19.3958 31.0417 19.8411 30.8255 20.2422 30.5391C20.6484 30.2474 20.9922 29.8906 21.2734 29.4687C21.5599 29.0417 21.7604 28.5521 21.875 28H23.8125C23.6667 28.8177 23.401 29.5495 23.0156 30.1953C22.6302 30.8411 22.151 31.3906 21.5781 31.8437C21.0052 32.2917 20.362 32.6328 19.6484 32.8672C18.9401 33.1016 18.1823 33.2187 17.375 33.2187C16.0104 33.2187 14.7969 32.8854 13.7344 32.2188C12.6719 31.5521 11.8359 30.6042 11.2266 29.375C10.6172 28.1458 10.3125 26.6875 10.3125 25C10.3125 23.3125 10.6172 21.8542 11.2266 20.625C11.8359 19.3958 12.6719 18.4479 13.7344 17.7812C14.7969 17.1146 16.0104 16.7812 17.375 16.7812C18.1823 16.7812 18.9401 16.8984 19.6484 17.1328C20.362 17.3672 21.0052 17.7109 21.5781 18.1641C22.151 18.612 22.6302 19.1589 23.0156 19.8047C23.401 20.4453 23.6667 21.1771 23.8125 22ZM27.5996 17L32.3496 30.4687H32.5371L37.2871 17H39.3184L33.4434 33H31.4434L25.5684 17H27.5996Z" fill="#00FF75" fill-opacity="0.71"/>
</svg>
